# xmcd
#
# Track frame offsets:
#	150
#	9557
#	20562
#	32959
#	46056
#	57694
#	71948
#	80939
#	92703
#	105050
#	118106
#	130543
#	141726
#	152213
#	163481
#	173286
#	184523
#	196353
#	209456
#	222024
#
# Disc length: 3155 seconds
#
# Revision: 1
# Processed by: cddbd v1.5.2PL0 Copyright (c) Steve Scherf et al.
# Submitted via: EZCDAudioConverter 1.5.4.1
#
DISCID=230c5114
DTITLE=George Jones - Tammy Wynette and George Jones - Disc 2
DYEAR=2010
DGENRE=Country
TTITLE0=The Race Is On
TTITLE1=Tender Years
TTITLE2=She Thinks I Still Care
TTITLE3=Hello Darling
TTITLE4=White Lightnin'
TTITLE5=A Good Year For The Roses
TTITLE6=Love Bug
TTITLE7=Milwaukee Here I Come
TTITLE8=Let's Get Together One More Time(With Melba Montgomery)
TTITLE9=When The Grass Grows Over Me
TTITLE10=If My Heart Had Windows
TTITLE11=4033
TTITLE12=Treasures Of Love
TTITLE13=I'll Share My World With You
TTITLE14=I've Got Five Dollars
TTITLE15=Old Brush Arbors
TTITLE16=Small Time Laboring Man
TTITLE17=Things Have Gone To Pieces
TTITLE18=Long As We're Dreaming(With Melba Montgomery)
TTITLE19=Family Bible
EXTD=
EXTT0=
EXTT1=
EXTT2=
EXTT3=
EXTT4=
EXTT5=
EXTT6=
EXTT7=
EXTT8=
EXTT9=
EXTT10=
EXTT11=
EXTT12=
EXTT13=
EXTT14=
EXTT15=
EXTT16=
EXTT17=
EXTT18=
EXTT19=
PLAYORDER=
